<svg style="display: none;">

    <!-- DEFAULT-ICON -->
    <symbol id="default-icon" viewBox="0 0 24 24">
        <path
            d="M30,3.4141,28.5859,2,2,28.5859,3.4141,30l2-2H26a2.0027,2.0027,0,0,0,2-2V5.4141ZM26,26H7.4141l7.7929-7.793,2.3788,2.3787a2,2,0,0,0,2.8284,0L22,19l4,3.9973Zm0-5.8318-2.5858-2.5859a2,2,0,0,0-2.8284,0L19,19.1682l-2.377-2.3771L26,7.4141Z" />
        <path
            d="M6,22V19l5-4.9966,1.3733,1.3733,1.4159-1.416-1.375-1.375a2,2,0,0,0-2.8284,0L6,16.1716V6H22V4H6A2.002,2.002,0,0,0,4,6V22Z" />
    </symbol>

    <!-- MONITOR -->
    <symbol id="monitor" viewBox="0 0 24 24">
        <path
            d="M20 2h-16c-1.7 0-3 1.3-3 3v10c0 1.7 1.3 3 3 3h7v2h-3c-0.6 0-1 0.4-1 1s0.4 1 1 1h8c0.6 0 1-0.4 1-1s-0.4-1-1-1h-3v-2h7c1.7 0 3-1.3 3-3v-10c0-1.7-1.3-3-3-3zM21 15c0 0.6-0.4 1-1 1h-16c-0.6 0-1-0.4-1-1v-10c0-0.6 0.4-1 1-1h16c0.6 0 1 0.4 1 1v10z">
        </path>
    </symbol>

    <!-- TRENDING UP -->
    <symbol id="trending-up" viewBox="0 0 24 24">
        <path
            d="M23.9 5.6c-0.1-0.2-0.3-0.4-0.5-0.5-0.1-0.1-0.3-0.1-0.4-0.1h-6c-0.6 0-1 0.4-1 1s0.4 1 1 1h3.6l-7.1 7.1-4.3-4.3c-0.4-0.4-1-0.4-1.4 0l-7.5 7.5c-0.4 0.4-0.4 1 0 1.4 0.2 0.2 0.4 0.3 0.7 0.3s0.5-0.1 0.7-0.3l6.8-6.8 4.3 4.3c0.4 0.4 1 0.4 1.4 0l7.8-7.8v3.6c0 0.6 0.4 1 1 1s1-0.4 1-1v-6c0-0.1 0-0.3-0.1-0.4z">
        </path>
    </symbol>

    <!-- CREDIT-CARD -->
    <symbol id="credit-card" viewBox="0 0 24 24">
        <path
            d="M21 3h-18c-1.7 0-3 1.3-3 3v12c0 1.7 1.3 3 3 3h18c1.7 0 3-1.3 3-3v-12c0-1.7-1.3-3-3-3zM3 5h18c0.6 0 1 0.4 1 1v3h-20v-3c0-0.6 0.4-1 1-1zM21 19h-18c-0.6 0-1-0.4-1-1v-7h20v7c0 0.6-0.4 1-1 1z">
        </path>
    </symbol>

    <!-- UPLOAD -->
    <symbol id="upload" viewBox="0 0 24 24">
        <path
            d="M21 14c-0.6 0-1 0.4-1 1v4c0 0.6-0.4 1-1 1h-14c-0.6 0-1-0.4-1-1v-4c0-0.6-0.4-1-1-1s-1 0.4-1 1v4c0 1.7 1.3 3 3 3h14c1.7 0 3-1.3 3-3v-4c0-0.6-0.4-1-1-1z">
        </path>
        <path
            d="M7.7 8.7l3.3-3.3v9.6c0 0.6 0.4 1 1 1s1-0.4 1-1v-9.6l3.3 3.3c0.2 0.2 0.4 0.3 0.7 0.3s0.5-0.1 0.7-0.3c0.4-0.4 0.4-1 0-1.4l-5-5c-0.1-0.1-0.2-0.2-0.3-0.2-0.2-0.1-0.5-0.1-0.8 0-0.1 0.1-0.2 0.1-0.3 0.2l-5 5c-0.4 0.4-0.4 1 0 1.4s1 0.4 1.4 0z">
        </path>
    </symbol>

    <!-- HOME -->
    <symbol id="home" viewBox="0 0 24 24">
        <path
            d="M21.6 8.2l-9-7c-0.4-0.3-0.9-0.3-1.2 0l-9 7c-0.3 0.2-0.4 0.5-0.4 0.8v11c0 1.7 1.3 3 3 3h14c1.7 0 3-1.3 3-3v-11c0-0.3-0.1-0.6-0.4-0.8zM14 21h-4v-8h4v8zM20 20c0 0.6-0.4 1-1 1h-3v-9c0-0.6-0.4-1-1-1h-6c-0.6 0-1 0.4-1 1v9h-3c-0.6 0-1-0.4-1-1v-10.5l8-6.2 8 6.2v10.5z">
        </path>
    </symbol>

    <!-- USER-X -->
    <symbol id="user-x" viewBox="0 0 24 24">
        <path
            d="M12 14h-7c-2.8 0-5 2.2-5 5v2c0 0.6 0.4 1 1 1s1-0.4 1-1v-2c0-1.7 1.3-3 3-3h7c1.7 0 3 1.3 3 3v2c0 0.6 0.4 1 1 1s1-0.4 1-1v-2c0-2.8-2.2-5-5-5z">
        </path>
        <path
            d="M8.5 12c2.8 0 5-2.2 5-5s-2.2-5-5-5-5 2.2-5 5 2.2 5 5 5zM8.5 4c1.7 0 3 1.3 3 3s-1.3 3-3 3-3-1.3-3-3 1.3-3 3-3z">
        </path>
        <path
            d="M21.9 10.5l1.8-1.8c0.4-0.4 0.4-1 0-1.4s-1-0.4-1.4 0l-1.8 1.8-1.8-1.8c-0.4-0.4-1-0.4-1.4 0s-0.4 1 0 1.4l1.8 1.8-1.8 1.8c-0.4 0.4-0.4 1 0 1.4 0.2 0.2 0.5 0.3 0.7 0.3s0.5-0.1 0.7-0.3l1.8-1.8 1.8 1.8c0.2 0.2 0.5 0.3 0.7 0.3s0.5-0.1 0.7-0.3c0.4-0.4 0.4-1 0-1.4l-1.8-1.8z">
        </path>
    </symbol>

    <!-- ARROW-LEFT -->
    <symbol id="arrow-left" viewBox="0 0 24 24">
        <path
            d="M19 11h-11.6l5.3-5.3c0.4-0.4 0.4-1 0-1.4s-1-0.4-1.4 0l-7 7c-0.1 0.1-0.2 0.2-0.2 0.3-0.1 0.2-0.1 0.5 0 0.8 0.1 0.1 0.1 0.2 0.2 0.3l7 7c0.2 0.2 0.5 0.3 0.7 0.3s0.5-0.1 0.7-0.3c0.4-0.4 0.4-1 0-1.4l-5.3-5.3h11.6c0.6 0 1-0.4 1-1s-0.4-1-1-1z">
        </path>
    </symbol>

    <!-- ARROW-RIGHT -->
    <symbol id="arrow-right" viewBox="0 0 24 24">
        <path
            d="M19.9 12.4c0.1-0.2 0.1-0.5 0-0.8-0.1-0.1-0.1-0.2-0.2-0.3l-7-7c-0.4-0.4-1-0.4-1.4 0s-0.4 1 0 1.4l5.3 5.3h-11.6c-0.6 0-1 0.4-1 1s0.4 1 1 1h11.6l-5.3 5.3c-0.4 0.4-0.4 1 0 1.4 0.2 0.2 0.5 0.3 0.7 0.3s0.5-0.1 0.7-0.3l7-7c0.1-0.1 0.2-0.2 0.2-0.3z">
        </path>
    </symbol>

</svg>